PathFileType	4	(X/Y/Z)	c:/Users/goper/Files/vsCode/490R/osim_files/C12/C12_SSWS_03.trc
DataRate	CameraRate	NumFrames	NumMarkers	Units                	OrigDataRate	OrigDataStartFrame	OrigNumFrames
120.00	120.00	5	36	mm	120.0	1008	1343
                Frame#	Time	LPSIS			LASIS			LTH1			LTH2			LTH3			LTH4			LLFE			LMFE			LSH1			LSH2			LSH3			LSH4			LLMAL			LMMAL			LCAL			LMTP5			LTOE			LMTP1			RPSIS			RASIS			RTH1			RTH2			RTH3			RTH4			RLFE			RMFE			RSH1			RSH2			RSH3			RSH4			RLMAL			RMMAL			RCAL			RMTP1			RTOE			RMTP5		
		X1	Y1	Z1	X2	Y2	Z2	X3	Y3	Z3	X4	Y4	Z4	X5	Y5	Z5	X6	Y6	Z6	X7	Y7	Z7	X8	Y8	Z8	X9	Y9	Z9	X10	Y10	Z10	X11	Y11	Z11	X12	Y12	Z12	X13	Y13	Z13	X14	Y14	Z14	X15	Y15	Z15	X16	Y16	Z16	X17	Y17	Z17	X18	Y18	Z18	X19	Y19	Z19	X20	Y20	Z20	X21	Y21	Z21	X22	Y22	Z22	X23	Y23	Z23	X24	Y24	Z24	X25	Y25	Z25	X26	Y26	Z26	X27	Y27	Z27	X28	Y28	Z28	X29	Y29	Z29	X30	Y30	Z30	X31	Y31	Z31	X32	Y32	Z32	X33	Y33	Z33	X34	Y34	Z34	X35	Y35	Z35	X36	Y36	Z36

1008	8.39167	-2967.40771	1086.28723	307.59497	-3145.38403	1052.85486	370.35291	-3135.44629	774.07019	445.90292	-3153.86792	735.30634	444.28656	-3189.34595	801.30786	450.41217	-3200.43677	756.77008	448.50110	-3254.23267	580.85004	417.40088	-3278.48267	576.43207	294.80228	-3173.95581	502.50381	421.58395	-3161.60815	456.86523	427.98367	-3232.85718	480.90390	427.09155	-3209.97412	438.01657	427.44467	-3091.56250	169.20695	373.56119	-3129.07886	170.00719	300.72192	-3041.16479	165.98598	320.66605	-3186.55859	60.09901	417.24139	-3261.53149	77.67463	367.19687	-3233.76807	58.57325	318.36636	0.00000	0.00000	0.00000	-3148.93628	1058.24109	116.95933	-3037.92798	768.10352	70.82347	-3042.43774	723.17072	84.00477	-3103.86548	764.03412	75.80521	-3094.56055	717.48962	84.72376	-3026.40991	545.89996	127.27118	-3024.75049	551.04803	259.14713	-2954.57324	454.79266	107.10368	-2953.35352	411.24982	101.21465	-3018.75342	444.41440	113.23545	-3004.46143	401.90961	109.62357	-2926.57568	123.27249	158.91924	-2941.48193	135.53596	240.43962	-2849.33618	93.36690	196.70062	-3058.88599	54.37099	245.42657	-3103.84033	70.41509	213.71082	-3070.08228	47.86679	139.96835
1009	8.40000	-2977.62549	1084.97070	308.97375	-3156.19238	1051.85852	370.33893	-3148.60059	774.00739	445.81265	-3166.57056	734.42487	443.72217	-3202.63647	800.90967	450.09885	-3213.04858	756.03845	447.61929	-3267.29248	580.30066	415.40103	-3290.08960	576.51648	292.73468	-3189.87061	498.35840	421.05038	-3179.36865	452.16986	426.60968	-3249.05640	479.03900	424.94217	-3228.92407	434.92432	426.39682	-3126.37158	160.18478	376.01505	-3161.53589	162.65900	301.96964	-3073.98999	154.00394	322.77267	-3225.82568	57.77402	419.32404	-3298.63843	78.91170	368.52246	-3272.41821	57.92951	320.21280	0.00000	0.00000	0.00000	-3158.41675	1057.25916	116.89926	-3043.55054	768.00775	71.08618	0.00000	0.00000	0.00000	-3109.10669	763.12134	76.06415	-3099.20093	716.56976	85.14575	-3028.17871	545.71857	126.95949	-3027.10474	550.98926	259.21945	-2956.23145	455.27304	107.33294	-2954.70679	411.69116	101.55951	-3020.19458	444.85477	113.41105	-3005.63403	402.14145	109.79289	-2927.48340	123.81408	159.08003	-2941.70166	136.04318	240.44107	-2849.42529	94.22657	196.64897	-3058.29175	54.42242	245.24890	-3104.01245	70.25847	213.66092	-3070.52930	47.71542	139.87502
1010	8.40833	-2987.67603	1083.47473	310.37738	-3166.56079	1050.63464	370.34924	-3160.95239	772.71027	445.48492	-3178.74341	733.18195	442.86270	-3214.97363	799.73212	449.43176	-3225.25244	754.69421	446.61020	-3279.74829	579.28949	413.29251	-3301.11084	576.05176	290.51199	-3204.99902	493.42819	420.44370	-3197.17334	446.53943	425.73318	-3265.12231	478.20682	425.92636	-3247.87061	433.11472	427.28522	-3159.55469	152.27420	377.81711	-3194.11133	156.20757	303.68643	-3106.85791	145.09514	322.67966	-3265.52637	56.48341	421.26285	-3336.41016	81.11697	369.63562	-3311.06372	58.23989	321.74957	0.00000	0.00000	0.00000	-3167.70557	1055.85181	116.76195	-3048.83984	767.95734	71.49281	-3051.42822	723.02838	84.54512	-3114.34302	762.02161	76.41901	-3103.57495	715.56445	85.44508	-3030.13232	545.87683	127.18348	-3029.69702	550.91663	259.31662	-2957.73755	455.82587	107.67921	-2956.05542	412.11603	101.60252	-3024.77441	447.04208	113.08527	-3006.84570	402.60400	110.01286	-2927.81543	124.39929	159.25461	-2942.11450	136.38115	240.66159	-2849.85059	94.91545	196.93167	-3059.10742	54.14369	245.17671	-3103.96069	70.13837	213.44147	-3070.14648	47.76704	139.91058
1011	8.41667	-2998.16138	1081.86951	311.89069	-3177.40601	1049.21509	370.55246	-3173.07007	771.02844	445.00449	-3190.44727	731.05658	441.75095	-3227.10352	798.05377	448.66376	-3237.33252	752.83429	445.36136	-3291.70288	577.77350	411.11151	-3311.67236	574.81299	288.33646	-3220.64624	488.67108	419.87396	-3213.68066	441.85468	425.46643	-3281.86597	476.26300	424.52710	-3266.63672	430.49182	426.42749	-3192.73364	144.93793	379.59048	-3226.76001	150.04645	305.19315	-3141.09399	131.85970	327.70239	-3305.17554	55.99652	422.90170	-3373.81250	84.06506	370.48111	-3349.45972	59.43007	323.00082	0.00000	0.00000	0.00000	-3177.32153	1054.31079	116.74535	-3054.15503	767.73779	71.92963	-3056.90430	722.65387	84.93757	-3119.10278	760.81799	76.72794	-3107.91284	714.59625	85.67213	-3032.18872	545.86121	127.45937	-3032.48242	550.65240	259.55124	-2959.05151	456.37646	108.04044	-2957.07007	412.83438	102.24729	-3025.87036	447.18985	113.33375	-3008.10376	402.94659	110.19381	-2927.70093	124.92578	159.47037	-2942.18042	136.89648	240.82040	-2850.15332	95.69345	197.15315	-3059.53955	54.03600	245.20322	-3105.24194	69.94414	213.05927	-3070.17041	47.71892	139.89818
1012	8.42500	-3008.89990	1080.05334	313.46115	-3188.09937	1047.54456	370.72214	-3184.87256	769.04297	444.49927	-3202.28809	728.85980	440.67908	-3238.89844	795.84198	447.84656	-3248.75708	750.27521	443.80731	-3301.58325	575.66437	408.82376	-3321.86426	572.86304	285.99643	-3235.98804	483.57767	419.30795	-3231.68896	436.56064	425.44699	-3297.76538	474.27588	423.13861	-3284.35986	428.06073	426.26978	-3226.78662	138.19907	381.68457	-3259.76587	144.66971	306.77774	-3175.40552	121.77066	330.41470	-3344.69043	56.53232	424.35132	-3411.14355	88.10113	371.00430	-3387.61572	61.72176	323.92422	0.00000	0.00000	0.00000	-3186.89062	1052.53894	116.77763	-3059.31689	767.44336	72.32526	-3061.50439	722.31433	85.39247	-3124.05615	759.52826	76.88171	-3112.37109	713.50311	85.79847	-3034.61084	545.78497	127.74663	-3035.32593	550.18530	259.70465	-2960.89722	456.82654	108.52581	-2958.50122	413.09894	102.35480	-3027.20361	447.34412	113.57726	-3009.32910	403.11450	110.42453	-2928.53418	125.42165	159.72168	-2943.15918	137.11491	241.21283	-2850.07544	96.49868	197.43886	-3059.33691	53.97706	245.05328	-3105.16357	69.69085	213.22383	-3070.20239	47.66246	139.89540
